<?xml version="1.0" encoding="utf-8"?>
<!-- Svg Vector Icons : http://www.onlinewebfonts.com/icon -->
<!DOCTYPE svg PUBLIC "-//W3C//DTD SVG 1.1//EN" "http://www.w3.org/Graphics/SVG/1.1/DTD/svg11.dtd">
<svg version="1.1" xmlns="http://www.w3.org/2000/svg" xmlns:xlink="http://www.w3.org/1999/xlink" x="0px" y="0px" viewBox="0 0 1000 1000" enable-background="new 0 0 1000 1000" xml:space="preserve">
<metadata> Svg Vector Icons : http://www.onlinewebfonts.com/icon </metadata>
<g><path d="M565.9,682.1c-66.5,0-128.9-25.7-175.6-72.4c-28-28-49.1-62.8-61-100.5c-5.1-16.2,3.9-33.3,20-38.4c16.2-5.1,33.3,3.9,38.4,20c9.1,28.8,24.5,54.2,45.8,75.5c72.9,72.9,191.6,72.9,264.6,0l176-175.9c72.9-72.9,72.9-191.6,0-264.6c-35.1-35.1-82.1-54.6-132.3-54.6s-97.1,19.3-132.3,54.6L485.3,250.2c-12,12-31.4,12-43.4,0s-12-31.4,0-43.4L566.3,82.4C613,35.7,675.4,10,741.9,10s128.9,25.7,175.6,72.4S990,191.5,990,258.1S964.3,387,917.6,433.7l-176,175.9C694.9,656.4,632.5,682.1,565.9,682.1z"/><path d="M258.1,990c-66.5,0-128.9-25.7-175.6-72.4C35.7,870.8,10,808.5,10,741.9S35.7,613,82.4,566.3l175.9-175.9C305.1,343.7,367.5,318,434,318s128.9,25.7,175.6,72.4c28,28,49.1,62.8,61,100.5c5.1,16.2-3.9,33.3-20,38.4c-16.2,5.1-33.3-3.9-38.4-20c-9.1-28.8-24.5-54.2-45.8-75.5c-35.1-35.1-82.1-54.6-132.3-54.6c-50.1,0-97.1,19.3-132.3,54.6l-176,175.8c-35.1,35.1-54.6,82.1-54.6,132.3s19.3,97.1,54.6,132.3c72.9,72.9,191.6,72.9,264.6,0l124.4-124.4c12-12,31.4-12,43.4,0s12,31.4,0,43.4L433.8,917.5C387,964.3,324.6,990,258.1,990z"/></g>
</svg>