<svg width="252px" height="56px" viewBox="0 0 252 56" version="1.1" xmlns="http://www.w3.org/2000/svg" xmlns:xlink="http://www.w3.org/1999/xlink">
    <!-- Generator: Sketch 51.1 (57501) - http://www.bohemiancoding.com/sketch -->
    <desc>Created with Sketch.</desc>
    <defs>
        <linearGradient x1="4.4408921e-14%" y1="100%" x2="100%" y2="0%" id="linearGradient-1">
            <stop stop-color="#0F94D6" offset="0%"></stop>
            <stop stop-color="#1FD1D2" offset="100%"></stop>
        </linearGradient>
    </defs>
    <g id="Page-1" stroke="none" stroke-width="1" fill="none" fill-rule="evenodd">
        <g id="06-09-register-step-2" transform="translate(-404.000000, -256.000000)" fill="url(#linearGradient-1)">
            <g id="Group-3" transform="translate(404.000000, 256.000000)">
                <path d="M5.1277704,-9.62992575e-13 L225.621073,-9.41662398e-13 C227.02557,-9.34435738e-13 227.519254,0.0619002808 228.062307,0.206058597 C228.605359,0.350216913 229.083127,0.576633264 229.538566,0.905665405 C229.994006,1.23469755 230.354519,1.57760604 231.243854,2.66466413 L250.603644,26.3286748 C251.104975,26.9414648 251.23457,27.2072648 251.319831,27.5241472 C251.405091,27.8410295 251.405091,28.1589705 251.319831,28.4758528 C251.23457,28.7927352 251.104975,29.0585352 250.603644,29.6713252 L231.243854,53.3353359 C230.354519,54.422394 229.994006,54.7653025 229.538566,55.0943346 C229.083127,55.4233667 228.605359,55.6497831 228.062307,55.7939414 C227.519254,55.9380997 227.02557,56 225.621073,56 L5.1277704,56 C3.34473292,56 2.69816044,55.8143488 2.04630859,55.4657346 C1.39445674,55.1171204 0.882879593,54.6055433 0.534265408,53.9536914 C0.185651222,53.3018396 -4.96457051e-13,52.6552671 -5.0380186e-13,50.8722296 L-4.83030948e-13,5.1277704 C-4.83249307e-13,3.34473292 0.185651222,2.69816044 0.534265408,2.04630859 C0.882879593,1.39445674 1.39445674,0.882879593 2.04630859,0.534265408 C2.69816044,0.185651222 3.34473292,-9.62665036e-13 5.1277704,-9.62992575e-13 Z" id="general/input/bg_normal"></path>
            </g>
        </g>
    </g>
</svg>