<?xml version="1.0" encoding="UTF-8"?>
<svg width="44px" height="44px" viewBox="0 0 44 44" version="1.1" xmlns="http://www.w3.org/2000/svg" xmlns:xlink="http://www.w3.org/1999/xlink">
    <!-- Generator: Sketch 51.1 (57501) - http://www.bohemiancoding.com/sketch -->
    <title>@Icons/Menu hamburger</title>
    <desc>Created with Sketch.</desc>
    <defs>
        <path d="M15,17 L29,17 C29.5522847,17 30,17.4477153 30,18 C30,18.5522847 29.5522847,19 29,19 L15,19 C14.4477153,19 14,18.5522847 14,18 C14,17.4477153 14.4477153,17 15,17 Z M15,21 L29,21 C29.5522847,21 30,21.4477153 30,22 C30,22.5522847 29.5522847,23 29,23 L15,23 C14.4477153,23 14,22.5522847 14,22 C14,21.4477153 14.4477153,21 15,21 Z M15,25 L29,25 C29.5522847,25 30,25.4477153 30,26 C30,26.5522847 29.5522847,27 29,27 L15,27 C14.4477153,27 14,26.5522847 14,26 C14,25.4477153 14.4477153,25 15,25 Z" id="path-1"></path>
    </defs>
    <g id="@Icons/Menu-hamburger" stroke="none" stroke-width="1" fill="none" fill-rule="evenodd">
        <mask id="mask-2" fill="white">
            <use xlink:href="#path-1"></use>
        </mask>
        <path stroke="#979797" d="M15,17.5 C14.7238576,17.5 14.5,17.7238576 14.5,18 C14.5,18.2761424 14.7238576,18.5 15,18.5 L29,18.5 C29.2761424,18.5 29.5,18.2761424 29.5,18 C29.5,17.7238576 29.2761424,17.5 29,17.5 L15,17.5 Z M15,21.5 C14.7238576,21.5 14.5,21.7238576 14.5,22 C14.5,22.2761424 14.7238576,22.5 15,22.5 L29,22.5 C29.2761424,22.5 29.5,22.2761424 29.5,22 C29.5,21.7238576 29.2761424,21.5 29,21.5 L15,21.5 Z M15,25.5 C14.7238576,25.5 14.5,25.7238576 14.5,26 C14.5,26.2761424 14.7238576,26.5 15,26.5 L29,26.5 C29.2761424,26.5 29.5,26.2761424 29.5,26 C29.5,25.7238576 29.2761424,25.5 29,25.5 L15,25.5 Z"></path>
        <g id="&amp;-color/white" mask="url(#mask-2)" fill="#FFFFFF">
            <rect id="color/green_active" x="0" y="0" width="44" height="44"></rect>
        </g>
    </g>
</svg>