<svg width="44px" height="44px" viewBox="0 0 44 44" version="1.1" xmlns="http://www.w3.org/2000/svg" xmlns:xlink="http://www.w3.org/1999/xlink">
    <!-- Generator: Sketch 51.1 (57501) - http://www.bohemiancoding.com/sketch -->
    <desc>Created with Sketch.</desc>
    <defs>
        <rect id="path-1" x="0" y="0" width="44" height="44"></rect>
        <path d="M5.1277704,-2.07168062e-16 L38.8722296,2.07168062e-16 C40.6552671,-1.2037061e-16 41.3018396,0.185651222 41.9536914,0.534265408 C42.6055433,0.882879593 43.1171204,1.39445674 43.4657346,2.04630859 C43.8143488,2.69816044 44,3.34473292 44,5.1277704 L44,38.8722296 C44,40.6552671 43.8143488,41.3018396 43.4657346,41.9536914 C43.1171204,42.6055433 42.6055433,43.1171204 41.9536914,43.4657346 C41.3018396,43.8143488 40.6552671,44 38.8722296,44 L5.1277704,44 C3.34473292,44 2.69816044,43.8143488 2.04630859,43.4657346 C1.39445674,43.1171204 0.882879593,42.6055433 0.534265408,41.9536914 C0.185651222,41.3018396 8.02470732e-17,40.6552671 -1.38112041e-16,38.8722296 L1.38112041e-16,5.1277704 C-8.02470732e-17,3.34473292 0.185651222,2.69816044 0.534265408,2.04630859 C0.882879593,1.39445674 1.39445674,0.882879593 2.04630859,0.534265408 C2.69816044,0.185651222 3.34473292,1.2037061e-16 5.1277704,-2.07168062e-16 Z M4.8458278,1 C3.50854969,1 3.02362033,1.13923842 2.53473144,1.40069906 C2.04584256,1.66215969 1.66215969,2.04584256 1.40069906,2.53473144 C1.13923842,3.02362033 1,3.50854969 1,4.8458278 L1,39.1541722 C1,40.4914503 1.13923842,40.9763797 1.40069906,41.4652686 C1.66215969,41.9541574 2.04584256,42.3378403 2.53473144,42.5993009 C3.02362033,42.8607616 3.50854969,43 4.8458278,43 L39.1541722,43 C40.4914503,43 40.9763797,42.8607616 41.4652686,42.5993009 C41.9541574,42.3378403 42.3378403,41.9541574 42.5993009,41.4652686 C42.8607616,40.9763797 43,40.4914503 43,39.1541722 L43,4.8458278 C43,3.50854969 42.8607616,3.02362033 42.5993009,2.53473144 C42.3378403,2.04584256 41.9541574,1.66215969 41.4652686,1.40069906 C40.9763797,1.13923842 40.4914503,1 39.1541722,1 L4.8458278,1 Z" id="path-3"></path>
        <path d="M15,17 L29,17 C29.5522847,17 30,17.4477153 30,18 C30,18.5522847 29.5522847,19 29,19 L15,19 C14.4477153,19 14,18.5522847 14,18 C14,17.4477153 14.4477153,17 15,17 Z M15,21 L29,21 C29.5522847,21 30,21.4477153 30,22 C30,22.5522847 29.5522847,23 29,23 L15,23 C14.4477153,23 14,22.5522847 14,22 C14,21.4477153 14.4477153,21 15,21 Z M15,25 L29,25 C29.5522847,25 30,25.4477153 30,26 C30,26.5522847 29.5522847,27 29,27 L15,27 C14.4477153,27 14,26.5522847 14,26 C14,25.4477153 14.4477153,25 15,25 Z" id="path-5"></path>
        <linearGradient x1="0%" y1="100%" x2="100%" y2="6.12323426e-15%" id="linearGradient-7">
            <stop stop-color="#F33B3B" offset="0%"></stop>
            <stop stop-color="#ECB933" offset="100%"></stop>
        </linearGradient>
    </defs>
    <g id="Symbols" stroke="none" stroke-width="1" fill="none" fill-rule="evenodd">
        <g id="common/top_nav/base" transform="translate(-8.000000, -8.000000)">
            <g id="top_nav/base">
                <g id="common/top_nav/menu_closed" transform="translate(8.000000, 8.000000)">
                    <g id="top_nav/burger_closed">
                        <mask id="mask-2" fill="white">
                            <use xlink:href="#path-1"></use>
                        </mask>

                        <g id="@Icons/Menu-hamburger" mask="url(#mask-2)">
                            <mask id="mask-6" fill="white">
                                <use xlink:href="#path-5"></use>
                            </mask>
                            <path stroke="#979797" stroke-width="1" d="M15,17.5 C14.7238576,17.5 14.5,17.7238576 14.5,18 C14.5,18.2761424 14.7238576,18.5 15,18.5 L29,18.5 C29.2761424,18.5 29.5,18.2761424 29.5,18 C29.5,17.7238576 29.2761424,17.5 29,17.5 L15,17.5 Z M15,21.5 C14.7238576,21.5 14.5,21.7238576 14.5,22 C14.5,22.2761424 14.7238576,22.5 15,22.5 L29,22.5 C29.2761424,22.5 29.5,22.2761424 29.5,22 C29.5,21.7238576 29.2761424,21.5 29,21.5 L15,21.5 Z M15,25.5 C14.7238576,25.5 14.5,25.7238576 14.5,26 C14.5,26.2761424 14.7238576,26.5 15,26.5 L29,26.5 C29.2761424,26.5 29.5,26.2761424 29.5,26 C29.5,25.7238576 29.2761424,25.5 29,25.5 L15,25.5 Z"></path>
                            <g id="&amp;-color/_gradient_orange_main" mask="url(#mask-6)" fill="url(#linearGradient-7)" fill-rule="evenodd">
                                <rect x="0" y="0" width="44" height="44"></rect>
                            </g>
                        </g>
                    </g>
                </g>
            </g>
        </g>
    </g>
</svg>