<svg class="svg-icon" viewBox="0 0 1024 1024" version="1.1" xmlns="http://www.w3.org/2000/svg"><path d="M42.71076 255.446904C43.944817 230.826007 44.717485 206.166041 46.531438 181.597233 48.80204 150.922443 73.626967 126.231548 103.446585 124.240714 129.900593 122.472893 156.49681 122.072448 182.82757 119.147241 288.076348 107.467575 385.307705 71.769307 474.576948 13.217963 492.618512 1.385282 511.443805-2.48081 531.844457 4.614892 537.287896 6.509684 542.527502 9.421868 547.397365 12.614039 626.939522 64.888479 713.277681 98.862876 806.329679 114.670714 841.493189 120.641587 876.947438 123.413778 912.5913 123.929799 950.328791 124.470238 974.87088 149.911562 977.493844 188.845951 980.96216 240.420425 980.530791 291.913507 975.784176 343.317059 959.303749 521.761188 901.785006 683.469619 789.294637 822.147542 720.456068 907.004586 636.759834 972.1291 538.819012 1017.65782 520.18491 1026.324377 501.833646 1025.809982 483.224826 1017.123893 394.590784 975.741249 317.586267 917.933823 252.209694 843.766724 167.100851 747.221875 110.210986 634.807331 76.485365 509.585035 54.10485 426.482789 43.617737 341.682721 42.71076 255.446904L42.71076 255.446904ZM108.259564 188.800372C107.581702 200.991176 106.630483 212.939433 106.303403 224.912107 104.65536 284.581769 108.18056 343.903077 117.623228 402.841845 132.708428 496.962857 161.328751 586.302941 206.947773 669.493089 277.213171 797.614547 375.574299 894.929358 505.777572 957.06518 509.852645 959.01206 513.080788 959.12601 517.228546 957.161222 635.309304 901.007667 728.356561 815.362754 797.176169 702.202664 889.520281 550.34422 923.651989 383.255819 916.035915 205.785129 915.789418 200.087731 915.097336 194.416379 914.598025 188.585499 912.363765 188.438994 910.66674 188.259933 908.968133 188.235516 869.663184 187.605546 830.58103 184.273382 791.832276 177.438133 693.144066 160.028513 601.379849 123.923288 516.833521 68.577137 513.129771 66.154929 510.517867 65.868431 506.537599 68.386681 490.921488 78.241552 475.269032 88.085027 459.134646 96.981107 365.705005 148.550697 266.090858 178.315532 160.330129 185.997252 143.361451 187.231146 126.345371 187.848093 108.259564 188.800372L108.259564 188.800372Z"  /><path d="M449.481825 593.398643C451.784028 590.5825 453.177674 588.572133 454.850999 586.849891 527.881569 511.575869 600.973763 436.352311 673.94745 361.013177 682.032813 352.665676 691.075718 347.629174 702.784248 349.377462 714.932043 351.189234 723.38083 358.114015 727.757703 369.865306 732.158277 381.704498 729.807091 392.552343 722.08515 402.231408 720.449748 404.284101 718.536249 406.115406 716.709655 407.998804 636.186258 490.961055 555.669181 573.910285 475.139463 656.866028 457.467643 675.070029 440.846587 675.032588 423.070478 656.750453 383.234618 615.781278 343.367153 574.838149 303.581855 533.805488 290.569744 520.388931 289.637486 501.312413 301.088459 488.270257 313.209394 474.472787 333.312988 473.886768 346.607935 487.342394 365.686044 506.653317 384.530298 526.200276 403.429855 545.696772 418.489774 561.236018 433.488068 576.828981 449.481825 593.398643L449.481825 593.398643Z"  /></svg>