<svg width="36" height="36" viewBox="0 0 36 36" fill="none" xmlns="http://www.w3.org/2000/svg">
<path d="M32.35 28.3555V30.4499H3.54999V28.3555L3.7208 28.2048L3.72083 28.2049L3.72599 28.2002C4.70918 27.308 5.56871 26.2884 6.28176 25.1684L6.29442 25.1485L6.30516 25.1276C7.10125 23.5708 7.5784 21.8708 7.7086 20.1271L7.70999 20.1085V20.0899L7.70999 15.1499L7.70999 15.1489C7.70496 12.6555 8.60373 10.2447 10.2398 8.36309C11.8759 6.48149 14.1385 5.25657 16.6084 4.91519L17.04 4.85555V4.4199V3.1099C17.04 2.88845 17.128 2.67606 17.2846 2.51947C17.4411 2.36288 17.6535 2.2749 17.875 2.2749C18.0964 2.2749 18.3088 2.36288 18.4654 2.51947C18.622 2.67606 18.71 2.88845 18.71 3.1099V4.3999V4.84009L19.1466 4.89587C21.6389 5.21429 23.9291 6.43185 25.587 8.3198C27.2449 10.2077 28.1563 12.6361 28.15 15.1486V15.1499V20.0899V20.1085L28.1514 20.1271C28.2816 21.8708 28.7587 23.5708 29.5548 25.1276L29.5663 25.1501L29.58 25.1713C30.3056 26.2941 31.1792 27.3139 32.1774 28.2032L32.1792 28.2048L32.35 28.3555Z" stroke="black" stroke-width="2"/>
<path d="M16.5327 33.258C16.2916 33.0479 16.1023 32.7885 15.9759 32.5H19.9141C19.7877 32.7885 19.5984 33.0479 19.3573 33.258C18.9658 33.599 18.4642 33.7869 17.945 33.7869C17.4258 33.7869 16.9242 33.599 16.5327 33.258Z" stroke="black" stroke-width="2"/>
</svg>
