<svg width="75" height="68" viewBox="0 0 75 68" fill="none" xmlns="http://www.w3.org/2000/svg">
<path d="M40.3757 64.5C39.5473 64.5 38.8757 65.1716 38.8757 66C38.8757 66.8284 39.5473 67.5 40.3757 67.5V64.5ZM7.68559 25.9549C8.08473 26.6808 8.99679 26.9457 9.72271 26.5466L21.5524 20.0421C22.2784 19.643 22.5433 18.7309 22.1441 18.005C21.745 17.2791 20.8329 17.0142 20.107 17.4133L9.59169 23.1951L3.80995 12.6798C3.4108 11.9538 2.49875 11.6889 1.77282 12.0881C1.04689 12.4872 0.781978 13.3993 1.18112 14.1252L7.68559 25.9549ZM40.3757 67.5C46.7162 67.5 52.9329 65.7658 58.3276 62.4898L56.7704 59.9256C51.8477 62.915 46.1701 64.5 40.3757 64.5V67.5ZM58.3276 62.4898C63.7225 59.2136 68.0832 54.5242 70.916 48.9452L68.2411 47.587C65.664 52.6623 61.6929 56.9363 56.7704 59.9256L58.3276 62.4898ZM70.916 48.9452C73.7489 43.366 74.9404 37.1203 74.3546 30.9107L71.3678 31.1924C71.9001 36.8347 70.818 42.5119 68.2411 47.587L70.916 48.9452ZM74.3546 30.9107C73.7688 24.7011 71.4293 18.7775 67.6026 13.8052L65.2251 15.635C68.7095 20.1623 70.8355 25.5501 71.3678 31.1924L74.3546 30.9107ZM67.6026 13.8052C63.776 8.83322 58.6145 5.00998 52.7006 2.76132L51.6344 5.56546C57.0349 7.61889 61.7406 11.1073 65.2251 15.635L67.6026 13.8052ZM52.7006 2.76132C46.7869 0.512737 40.3525 -0.0733879 34.1192 1.06788L34.6595 4.01882C40.3549 2.97603 46.2338 3.51195 51.6344 5.56546L52.7006 2.76132ZM34.1192 1.06788C27.8858 2.20916 22.0972 5.03337 17.4047 9.22675L19.4037 11.4637C23.6814 7.64103 28.9642 5.0616 34.6595 4.01882L34.1192 1.06788ZM17.4047 9.22675C12.712 13.4204 9.30116 18.8176 7.55953 24.8138L10.4405 25.6506C12.0237 20.1998 15.1263 15.2861 19.4037 11.4637L17.4047 9.22675Z" fill="url(#paint0_linear_702_3)"/>
<defs>
<linearGradient id="paint0_linear_702_3" x1="9" y1="2" x2="43.9899" y2="79.1561" gradientUnits="userSpaceOnUse">
<stop stop-color="#E95846"/>
<stop offset="1" stop-color="#E6B34F"/>
</linearGradient>
</defs>
</svg>
