<svg width="75" height="68" viewBox="0 0 75 68" fill="none" xmlns="http://www.w3.org/2000/svg">
<path d="M34.6243 64.5C35.4527 64.5 36.1243 65.1716 36.1243 66C36.1243 66.8284 35.4527 67.5 34.6243 67.5V64.5ZM67.3144 25.9549C66.9153 26.6808 66.0032 26.9457 65.2773 26.5466L53.4476 20.0421C52.7216 19.643 52.4567 18.7309 52.8559 18.005C53.255 17.2791 54.1671 17.0142 54.893 17.4133L65.4083 23.1951L71.19 12.6798C71.5892 11.9538 72.5012 11.6889 73.2272 12.0881C73.9531 12.4872 74.218 13.3993 73.8189 14.1252L67.3144 25.9549ZM34.6243 67.5C28.2838 67.5 22.0671 65.7658 16.6724 62.4898L18.2296 59.9256C23.1523 62.915 28.8299 64.5 34.6243 64.5V67.5ZM16.6724 62.4898C11.2775 59.2136 6.91681 54.5242 4.08402 48.9452L6.75895 47.587C9.33602 52.6623 13.3071 56.9363 18.2296 59.9256L16.6724 62.4898ZM4.08402 48.9452C1.2511 43.366 0.0596177 37.1203 0.645427 30.9107L3.63217 31.1924C3.09988 36.8347 4.18201 42.5119 6.75895 47.587L4.08402 48.9452ZM0.645427 30.9107C1.23123 24.7011 3.57067 18.7775 7.39745 13.8052L9.77487 15.635C6.29051 20.1623 4.16445 25.5501 3.63217 31.1924L0.645427 30.9107ZM7.39745 13.8052C11.224 8.83322 16.3855 5.00998 22.2994 2.76132L23.3656 5.56546C17.9651 7.61889 13.2594 11.1073 9.77487 15.635L7.39745 13.8052ZM22.2994 2.76132C28.2131 0.512737 34.6475 -0.0733879 40.8808 1.06788L40.3405 4.01882C34.6451 2.97603 28.7662 3.51195 23.3656 5.56546L22.2994 2.76132ZM40.8808 1.06788C47.1142 2.20916 52.9028 5.03337 57.5953 9.22675L55.5963 11.4637C51.3186 7.64103 46.0358 5.0616 40.3405 4.01882L40.8808 1.06788ZM57.5953 9.22675C62.288 13.4204 65.6988 18.8176 67.4405 24.8138L64.5595 25.6506C62.9763 20.1998 59.8737 15.2861 55.5963 11.4637L57.5953 9.22675Z" fill="url(#paint0_linear_702_8)"/>
<defs>
<linearGradient id="paint0_linear_702_8" x1="66" y1="2" x2="31.0101" y2="79.1561" gradientUnits="userSpaceOnUse">
<stop stop-color="#E95846"/>
<stop offset="1" stop-color="#E6B34F"/>
</linearGradient>
</defs>
</svg>
