<?xml version="1.0" encoding="iso-8859-1"?>
<!-- Generator: Adobe Illustrator 19.0.0, SVG Export Plug-In . SVG Version: 6.00 Build 0)  -->
<svg version="1.1" id="Capa_1" xmlns="http://www.w3.org/2000/svg" xmlns:xlink="http://www.w3.org/1999/xlink" x="0px" y="0px"
	 viewBox="0 0 512.068 512.068" style="enable-background:new 0 0 512.068 512.068;" xml:space="preserve">
<g>
	<g>
		<path d="M320.034,160h-32v-32c0-17.673-14.327-32-32-32c-17.673,0-32,14.327-32,32v32h-32c-17.673,0-32,14.327-32,32
			s14.327,32,32,32h32v32c0,17.673,14.327,32,32,32c17.673,0,32-14.327,32-32v-32h32c17.673,0,32-14.327,32-32
			S337.707,160,320.034,160z"/>
	</g>
</g>
<g>
	<g>
		<path d="M256.034,0c-106.039,0-192,85.961-192,192c0,81.44,43.2,129.12,85.12,175.2c32,35.68,63.2,69.6,75.84,120.64
			c4.296,17.143,21.676,27.557,38.819,23.261c11.45-2.87,20.391-11.81,23.261-23.261c12.8-51.04,43.36-84.8,75.84-120.64
			c41.92-46.08,85.12-93.76,85.12-175.2C448.034,85.961,362.073,0,256.034,0z M315.554,324.16
			c-22.172,23.072-42.102,48.198-59.52,75.04c-17.418-26.842-37.348-51.968-59.52-75.04c-38.24-42.08-68.48-75.36-68.48-132.16
			c0-70.692,57.308-128,128-128s128,57.308,128,128C384.034,248.8,353.794,282.08,315.554,324.16z"/>
	</g>
</g>
<g>
</g>
<g>
</g>
<g>
</g>
<g>
</g>
<g>
</g>
<g>
</g>
<g>
</g>
<g>
</g>
<g>
</g>
<g>
</g>
<g>
</g>
<g>
</g>
<g>
</g>
<g>
</g>
<g>
</g>
</svg>
