<?xml version="1.0" encoding="UTF-8" standalone="no"?>
<svg
   xmlns="http://www.w3.org/2000/svg"
   focusable="false"
   viewBox="0 0 15.981825 16">
  <g transform="translate(-385.00058,59.00334)">
    <path fill="currentColor" d="m 388.1877,-57 c -0.6627,0 -1.1875,0.54894 -1.1875,1.21875 l 0,3.78125 2,0 0,-3 3,0 0,-2 -3.8125,0 z m 5.8125,0 0,2 3,0 0,3 2,0 0,-3.78125 c 0,-0.66976 -0.5248,-1.21875 -1.1875,-1.21875 l -3.8125,0 z m -7,7 0,3.78125 c 0,0.66976 0.5248,1.21875 1.1875,1.21875 l 3.8125,0 0,-2 -3,0 0,-3 -2,0 z m 10,0 0,3 -3,0 0,2 3.8125,0 c 0.6627,0 1.1875,-0.54894 1.1875,-1.21875 l 0,-3.78125 -2,0 z" />
  </g>
</svg>
