<?xml version="1.0" encoding="UTF-8"?>
<svg width="30px" height="43px" viewBox="0 0 30 43" version="1.1" xmlns="http://www.w3.org/2000/svg" xmlns:xlink="http://www.w3.org/1999/xlink">
    <!-- Generator: Sketch 51.1 (57501) - http://www.bohemiancoding.com/sketch -->
    <title>pages/1 monitor/map/pin_nonumber_gray</title>
    <desc>Created with Sketch.</desc>
    <defs></defs>
    <g id="Guide" stroke="none" stroke-width="1" fill="none" fill-rule="evenodd">
        <g id="!5-map-icons" transform="translate(-558.000000, -48.000000)" fill="#000000" stroke="#DEE3E8" stroke-width="4">
            <path d="M571.46972,85.2877277 C563.860132,76.2448219 560,68.7585049 560,62.6666667 C560,55.6570532 565.833836,50 573,50 C580.166164,50 586,55.6570532 586,62.6666667 C586,68.7585049 582.139868,76.2448219 574.53028,85.2877277 L573,87.1062467 L571.46972,85.2877277 Z M573,65 C574.104569,65 575,64.1045695 575,63 C575,61.8954305 574.104569,61 573,61 C571.895431,61 571,61.8954305 571,63 C571,64.1045695 571.895431,65 573,65 Z" id="pages/1-monitor/map/pin_nonumber_gray"></path>
        </g>
    </g>
</svg>