<?xml version="1.0" encoding="UTF-8"?>
<svg width="30px" height="43px" viewBox="0 0 30 43" version="1.1" xmlns="http://www.w3.org/2000/svg" xmlns:xlink="http://www.w3.org/1999/xlink">
    <!-- Generator: Sketch 51.1 (57501) - http://www.bohemiancoding.com/sketch -->
    <title>pages/1 monitor/map/pin_nonumber_orange</title>
    <desc>Created with Sketch.</desc>
    <defs>
        <linearGradient x1="0%" y1="100%" x2="100%" y2="0%" id="linearGradient-1">
            <stop stop-color="#FE5A42" offset="0%"></stop>
            <stop stop-color="#FECB44" offset="100%"></stop>
        </linearGradient>
    </defs>
    <g id="Guide" stroke="none" stroke-width="1" fill="none" fill-rule="evenodd">
        <g id="!5-map-icons" transform="translate(-192.000000, -48.000000)" fill="url(#linearGradient-1)" stroke="#DEE3E8" stroke-width="4">
            <path d="M205.46972,85.2877277 C197.860132,76.2448219 194,68.7585049 194,62.6666667 C194,55.6570532 199.833836,50 207,50 C214.166164,50 220,55.6570532 220,62.6666667 C220,68.7585049 216.139868,76.2448219 208.53028,85.2877277 L207,87.1062467 L205.46972,85.2877277 Z M207,65 C208.104569,65 209,64.1045695 209,63 C209,61.8954305 208.104569,61 207,61 C205.895431,61 205,61.8954305 205,63 C205,64.1045695 205.895431,65 207,65 Z" id="pages/1-monitor/map/pin_nonumber_orange"></path>
        </g>
    </g>
</svg>