<?xml version="1.0" encoding="UTF-8"?>
<svg width="30px" height="43px" viewBox="0 0 30 43" version="1.1" xmlns="http://www.w3.org/2000/svg" xmlns:xlink="http://www.w3.org/1999/xlink">
    <!-- Generator: Sketch 51.1 (57501) - http://www.bohemiancoding.com/sketch -->
    <title>pages/1 monitor/map/pin_nonumber_blue</title>
    <desc>Created with Sketch.</desc>
    <defs>
        <linearGradient x1="4.4408921e-14%" y1="100%" x2="100%" y2="0%" id="linearGradient-1">
            <stop stop-color="#0F94D6" offset="0%"></stop>
            <stop stop-color="#1FD1D2" offset="100%"></stop>
        </linearGradient>
    </defs>
    <g id="Guide" stroke="none" stroke-width="1" fill="none" fill-rule="evenodd">
        <g id="!5-map-icons" transform="translate(-436.000000, -48.000000)" fill="url(#linearGradient-1)" stroke="#DEE3E8" stroke-width="4">
            <path d="M449.46972,85.2877277 C441.860132,76.2448219 438,68.7585049 438,62.6666667 C438,55.6570532 443.833836,50 451,50 C458.166164,50 464,55.6570532 464,62.6666667 C464,68.7585049 460.139868,76.2448219 452.53028,85.2877277 L451,87.1062467 L449.46972,85.2877277 Z M451,65 C452.104569,65 453,64.1045695 453,63 C453,61.8954305 452.104569,61 451,61 C449.895431,61 449,61.8954305 449,63 C449,64.1045695 449.895431,65 451,65 Z" id="pages/1-monitor/map/pin_nonumber_blue"></path>
        </g>
    </g>
</svg>