<?xml version="1.0" encoding="UTF-8"?>
<svg width="32px" height="32px" viewBox="0 0 32 32" version="1.1" xmlns="http://www.w3.org/2000/svg" xmlns:xlink="http://www.w3.org/1999/xlink">
    <!-- Generator: Sketch 51.1 (57501) - http://www.bohemiancoding.com/sketch -->
    <title>pages/1 monitor/map/zoom_in_inactive</title>
    <desc>Created with Sketch.</desc>
    <defs>
        <path d="M17,15 L23,15 C23.5522847,15 24,15.4477153 24,16 C24,16.5522847 23.5522847,17 23,17 L17,17 L17,23 C17,23.5522847 16.5522847,24 16,24 C15.4477153,24 15,23.5522847 15,23 L15,17 L9,17 C8.44771525,17 8,16.5522847 8,16 C8,15.4477153 8.44771525,15 9,15 L15,15 L15,9 C15,8.44771525 15.4477153,8 16,8 C16.5522847,8 17,8.44771525 17,9 L17,15 Z" id="path-1"></path>
    </defs>
    <g id="Guide" stroke="none" stroke-width="1" fill="none" fill-rule="evenodd">
        <g id="!2-icons" transform="translate(-1390.000000, -178.000000)">
            <g id="Group-170" transform="translate(1390.000000, 178.000000)">
                <g id="pages/1-monitor/map/zoom_in">
                    <rect id="Rectangle-3" x="0" y="0" width="32" height="32"></rect>
                    <mask id="mask-2" fill="white">
                        <use xlink:href="#path-1"></use>
                    </mask>
                    <g id="Combined-Shape"></g>
                    <g id="&amp;-color/gray_2" mask="url(#mask-2)" fill="#DEE3E8" fill-rule="evenodd">
                        <rect x="0" y="0" width="32" height="32"></rect>
                    </g>
                </g>
            </g>
        </g>
    </g>
</svg>